#N canvas 122 33 930 764 24;
#X obj 90 27 bng 25 250 50 0 play_note play_note_rcv play_note 0 30
0 10 -262144 -1 -1;
#N canvas 0 22 450 278 (subpatch) 0;
#X array pitch_sequence 16 float 3;
#A 0 65.0285 65.0286 73.7715 69.4001 41.7141 32.4855 42.6856 75.7144
51.4285 50.9428 59.6857 71.3429 63.5714 67.4572 64.5429 64.5429;
#X coords 0 100 16 32 200 140 1 0 0;
#X restore 83 96 graph;
#X obj 86 242 hsl 195 15 0 15 0 0 empty current_location_rcv empty
-2 -8 0 10 -262144 -1 -1 3880 1;
#X obj 313 73 hsl 128 15 0 127 0 0 threshold empty threshold -2 -8
0 10 -262144 -1 -1 2000 1;
#X obj 190 29 tgl 30 0 bonk_on_off empty bonk_on/off 0 35 0 10 -262144
-1 -1 0 1;
#X obj 316 120 vsl 15 128 0 100 0 0 attack_rcv empty attack 0 -9 0
10 -262144 -1 -1 7900 1;
#X obj 370 117 vsl 15 128 0 1000 0 0 release_rcv empty release 0 -9
0 10 -262144 -1 -1 8000 1;
#N canvas 170 49 1042 720 guts 0;
#X obj 89 542 osc~ 400;
#X obj 151 706 dac~;
#X obj 165 614 *~;
#X obj 168 653 *~ 0.6;
#X obj 351 584 line~;
#X text 594 534 <-- message boxes;
#X msg 351 492 1 \$1;
#X msg 523 535 0 \$1;
#X obj 354 442 i;
#X obj 523 483 i;
#X floatatom 394 403 5 0 0 0 - attack_rcv -;
#X floatatom 594 436 5 0 0 0 - release_rcv -;
#X obj 773 420 loadbang;
#X msg 733 463 10;
#X msg 801 464 150;
#X obj 498 438 delay;
#X msg 35 236 1;
#X obj 37 282 +;
#X floatatom 37 325 5 0 0 0 - - -;
#X obj 37 366 % 16;
#X obj 30 410 tabread pitch_sequence;
#X floatatom 30 446 5 0 0 0 - - -;
#X obj 52 488 mtof;
#X obj 144 97 bonk~;
#X obj 141 43 adc~;
#X msg 233 59 minvel \$1;
#X obj 92 141 spigot;
#X obj 123 365 s current_location_rcv;
#X obj 100 218 r play_note;
#X obj 470 351 r play_note;
#X obj 97 180 s play_note_rcv;
#X obj 229 117 r bonk_on_off;
#X obj 234 25 r threshold;
#X obj 635 505 s attack_rcv;
#X obj 817 504 s release_rcv;
#X msg 599 115 \; pd dsp 1;
#X obj 598 69 loadbang;
#X connect 0 0 2 0;
#X connect 2 0 3 0;
#X connect 3 0 1 0;
#X connect 3 0 1 1;
#X connect 4 0 2 1;
#X connect 6 0 4 0;
#X connect 7 0 4 0;
#X connect 8 0 6 0;
#X connect 9 0 7 0;
#X connect 10 0 8 1;
#X connect 10 0 15 1;
#X connect 11 0 9 1;
#X connect 12 0 13 0;
#X connect 12 0 14 0;
#X connect 13 0 33 0;
#X connect 14 0 34 0;
#X connect 15 0 9 0;
#X connect 16 0 17 0;
#X connect 17 0 18 0;
#X connect 18 0 17 1;
#X connect 18 0 19 0;
#X connect 19 0 20 0;
#X connect 19 0 27 0;
#X connect 20 0 21 0;
#X connect 21 0 22 0;
#X connect 22 0 0 0;
#X connect 23 0 26 0;
#X connect 24 0 23 0;
#X connect 25 0 23 0;
#X connect 26 0 30 0;
#X connect 28 0 16 0;
#X connect 29 0 15 0;
#X connect 29 0 8 0;
#X connect 31 0 26 1;
#X connect 32 0 25 0;
#X connect 36 0 35 0;
#X restore 142 411 pd guts;
