#N canvas 101 148 1199 570 12;
#X obj 84 107 bonk~;
#X obj 57 59 adc~;
#X obj 115 134 unpack 0 0;
#X msg 106 30 minvel \$1;
#X obj 116 9 hsl 128 15 0 127 0 1 empty empty empty -2 -8 0 10 -262144
-1 -1 12700 1;
#X obj 180 193 / 50;
#X obj 179 217 i;
#X floatatom 179 245 5 0 0 0 - - -;
#X obj 133 320 sel 1 2 3 4 5, f 96;
#X obj 126 447 readsf~;
#X obj 114 363 t b b;
#X msg 149 392 open sounds/gun.wav;
#X msg 106 395 1;
#X obj 127 479 dac~;
#X obj 335 445 readsf~;
#X obj 323 361 t b b;
#X msg 315 393 1;
#X obj 336 477 dac~;
#X msg 358 390 open sounds/musicbox.wav;
#X obj 575 440 readsf~;
#X obj 563 356 t b b;
#X msg 555 388 1;
#X obj 576 472 dac~;
#X msg 598 386 open sounds/drum.wav;
#X obj 799 448 readsf~;
#X obj 787 364 t b b;
#X msg 779 396 1;
#X obj 800 480 dac~;
#X msg 823 394 open sounds/cymbal.wav;
#X obj 170 274 t f;
#X floatatom 182 160 5 0 0 0 - - -;
#X text 232 160 raw volume;
#X text 207 218 convert to integers;
#X text 224 190 divide down to a set of low numbers. value depends
on input range., f 68;
#X text 220 245 resulting number \, higher integers are higher volumes
;
#X text 199 275 filter out bonkbugs;
#X text 824 320 send bangs according to number received;
#X text 857 361 play different sound file for each number;
#X text 361 73 watch the video: https://www.youtube.com/watch?v=dCLLPstDtaQ
;
#X text 151 523 yann seznec // MICA game lab // @yannseznec;
#X connect 0 1 2 0;
#X connect 1 0 0 0;
#X connect 2 1 30 0;
#X connect 3 0 0 0;
#X connect 4 0 3 0;
#X connect 5 0 6 0;
#X connect 6 0 7 0;
#X connect 7 0 29 0;
#X connect 8 0 10 0;
#X connect 8 1 15 0;
#X connect 8 2 20 0;
#X connect 8 3 25 0;
#X connect 9 0 13 0;
#X connect 9 0 13 1;
#X connect 10 0 12 0;
#X connect 10 1 11 0;
#X connect 11 0 9 0;
#X connect 12 0 9 0;
#X connect 14 0 17 0;
#X connect 14 0 17 1;
#X connect 15 0 16 0;
#X connect 15 1 18 0;
#X connect 16 0 14 0;
#X connect 18 0 14 0;
#X connect 19 0 22 0;
#X connect 19 0 22 1;
#X connect 20 0 21 0;
#X connect 20 1 23 0;
#X connect 21 0 19 0;
#X connect 23 0 19 0;
#X connect 24 0 27 0;
#X connect 24 0 27 1;
#X connect 25 0 26 0;
#X connect 25 1 28 0;
#X connect 26 0 24 0;
#X connect 28 0 24 0;
#X connect 29 0 8 0;
#X connect 30 0 5 0;
