#N canvas 69 42 1287 798 16;
#N canvas 0 22 450 278 (subpatch) 0;
#X array sound1 146157 float 2;
#X coords 0 1 146157 -1 200 140 1;
#X restore 90 47 graph;
#X obj 71 435 soundfiler;
#X msg 65 260 read -resize sounds/musicbox.wav sound1;
#X floatatom 68 503 15 0 0 0 - - -;
#X obj 67 541 s sound1_samples;
#X obj 174 292 bng 30 250 50 0 empty empty empty 17 7 0 10 -262144
-1 -1;
#X obj 173 346 openpanel;
#X msg 170 385 read -resize \$1 sound1;
#X obj 192 431 bng 30 250 50 0 empty empty empty 17 7 0 10 -262144
-1 -1;
#X text 233 435 debugging;
#X obj 653 580 phasor~;
#X obj 561 84 r sound1_samples;
#X obj 560 139 / 44100;
#X floatatom 559 182 5 0 0 0 - - -;
#X text 620 181 length of sound in seconds;
#X obj 561 246 t b f;
#X msg 544 292 1;
#X obj 562 323 /;
#X floatatom 563 352 5 0 0 0 - - -;
#X obj 652 623 *~;
#X obj 766 582 r sound1_samples;
#X obj 649 654 tabread4~ sound1;
#X obj 624 721 dac~;
#X obj 626 505 spigot;
#X obj 974 248 tgl 40 0 empty empty start/stop 17 7 0 10 -262144 -1
-1 0 1;
#X msg 712 507 0;
#X obj 627 470 f;
#X obj 947 374 sel 0 1;
#X msg 930 485 0, f 6;
#X obj 657 258 hsl 128 50 -5 5 0 1 empty empty pitch -2 -8 0 10 -262144
-1 -1 7620 1;
#X floatatom 654 358 5 0 0 0 - - -;
#X obj 651 386 t b f;
#X obj 622 425 * 1;
#X obj 928 104 bonk~;
#X obj 923 45 adc~;
#X msg 993 65 minvel \$1;
#X obj 995 41 hsl 128 15 0 127 0 1 empty empty empty -2 -8 0 10 -262144
-1 -1 12700 1;
#X obj 929 139 bng 15 250 50 0 empty empty empty 17 7 0 10 -262144
-1 -1;
#X obj 929 183 t b;
#X text 1003 485 start loop from beginning;
#X obj 826 247 random 100;
#X obj 826 276 / 10;
#X floatatom 827 339 5 0 0 0 - - -;
#X obj 827 306 - 5;
#X obj 67 227 loadbang;
#X text 405 31 watch the video: https://youtu.be/1xQ0gZ7-0i4;
#X text 102 733 yann seznec // MICA game lab // @yannseznec;
#X connect 1 0 3 0;
#X connect 2 0 1 0;
#X connect 3 0 4 0;
#X connect 5 0 6 0;
#X connect 6 0 7 0;
#X connect 7 0 1 0;
#X connect 8 0 3 0;
#X connect 10 0 19 0;
#X connect 11 0 12 0;
#X connect 12 0 13 0;
#X connect 13 0 15 0;
#X connect 15 0 16 0;
#X connect 15 1 17 1;
#X connect 16 0 17 0;
#X connect 17 0 18 0;
#X connect 18 0 32 0;
#X connect 19 0 21 0;
#X connect 20 0 19 1;
#X connect 21 0 22 0;
#X connect 21 0 22 1;
#X connect 23 0 10 0;
#X connect 24 0 23 1;
#X connect 24 0 27 0;
#X connect 25 0 10 0;
#X connect 26 0 23 0;
#X connect 27 0 25 0;
#X connect 27 1 26 0;
#X connect 27 1 28 0;
#X connect 28 0 10 1;
#X connect 29 0 30 0;
#X connect 30 0 31 0;
#X connect 31 0 32 0;
#X connect 31 1 32 1;
#X connect 32 0 26 0;
#X connect 33 0 37 0;
#X connect 34 0 33 0;
#X connect 35 0 33 0;
#X connect 36 0 35 0;
#X connect 37 0 38 0;
#X connect 38 0 24 0;
#X connect 38 0 40 0;
#X connect 40 0 41 0;
#X connect 41 0 43 0;
#X connect 42 0 30 0;
#X connect 43 0 42 0;
#X connect 44 0 2 0;
