#N canvas 45 23 1287 798 16;
#N canvas 0 22 450 278 (subpatch) 0;
#X array sound1 88200 float 2;
#X coords 0 1 88200 -1 200 140 1;
#X restore 90 47 graph;
#X obj 91 588 s sound1_samples;
#X obj 647 553 phasor~;
#X obj 561 84 r sound1_samples;
#X obj 560 139 / 44100;
#X floatatom 559 182 5 0 0 0 - - -;
#X text 620 181 length of sound in seconds;
#X obj 561 246 t b f;
#X msg 544 292 1;
#X obj 562 323 /;
#X floatatom 563 352 5 0 0 0 - - -;
#X obj 652 623 *~;
#X obj 766 582 r sound1_samples;
#X obj 649 654 tabread4~ sound1;
#X obj 624 721 dac~;
#X obj 626 505 spigot;
#X obj 974 248 tgl 40 0 empty empty start/stop 17 7 0 10 -262144 -1
-1 0 1;
#X msg 712 507 0;
#X obj 627 470 f;
#X obj 947 374 sel 0 1;
#X msg 930 485 0, f 6;
#X obj 657 258 hsl 128 50 -5 5 0 1 empty empty pitch -2 -8 0 10 -262144
-1 -1 9348 1;
#X floatatom 654 358 5 0 0 0 - - -;
#X obj 651 386 t b f;
#X obj 622 425 * 1;
#X obj 274 302 bonk~;
#X obj 269 243 adc~;
#X msg 339 263 minvel \$1;
#X obj 341 239 hsl 128 15 0 127 0 1 empty empty empty -2 -8 0 10 -262144
-1 -1 12000 1;
#X obj 275 337 bng 15 250 50 0 empty empty empty 17 7 0 10 -262144
-1 -1;
#X obj 929 183 t b;
#X text 1003 485 start loop from beginning;
#X obj 826 247 random 100;
#X obj 826 276 / 10;
#X floatatom 827 339 5 0 0 0 - - -;
#X obj 827 306 - 5;
#X text 102 733 yann seznec // MICA game lab // @yannseznec;
#X obj 93 187 hsl 195 15 0 1 0 0 empty current_location empty -2 -8
0 10 -262144 -1 -1 12908 1;
#X obj 544 590 snapshot~;
#X floatatom 544 619 5 0 0 0 - - -;
#X obj 539 551 metro 10;
#X obj 539 519 tgl 15 0 empty empty empty 17 7 0 10 -262144 -1 -1 1
1;
#X obj 539 487 loadbang;
#X obj 446 661 s current_location;
#X obj 265 435 tabwrite~ sound1;
#X obj 264 382 adc~;
#X msg 324 383 start;
#X floatatom 72 479 5 0 0 1 sample_length_(seconds) - -;
#X obj 72 510 * 44100;
#X floatatom 67 541 15 0 0 0 - - -;
#X obj 74 416 loadbang;
#X msg 74 449 2;
#X msg 54 637 \; sound1 resize \$1;
#X obj 321 355 delay 50;
#X text 419 31 watch the video: https://youtu.be/a0WIpnkvVM8;
#X connect 2 0 11 0;
#X connect 2 0 38 0;
#X connect 3 0 4 0;
#X connect 4 0 5 0;
#X connect 5 0 7 0;
#X connect 7 0 8 0;
#X connect 7 1 9 1;
#X connect 8 0 9 0;
#X connect 9 0 10 0;
#X connect 10 0 24 0;
#X connect 11 0 13 0;
#X connect 12 0 11 1;
#X connect 13 0 14 0;
#X connect 13 0 14 1;
#X connect 15 0 2 0;
#X connect 16 0 15 1;
#X connect 16 0 19 0;
#X connect 17 0 2 0;
#X connect 18 0 15 0;
#X connect 19 0 17 0;
#X connect 19 1 18 0;
#X connect 19 1 20 0;
#X connect 20 0 2 1;
#X connect 21 0 22 0;
#X connect 22 0 23 0;
#X connect 23 0 24 0;
#X connect 23 1 24 1;
#X connect 24 0 18 0;
#X connect 25 0 29 0;
#X connect 26 0 25 0;
#X connect 27 0 25 0;
#X connect 28 0 27 0;
#X connect 29 0 53 0;
#X connect 30 0 16 0;
#X connect 30 0 32 0;
#X connect 32 0 33 0;
#X connect 33 0 35 0;
#X connect 34 0 22 0;
#X connect 35 0 34 0;
#X connect 38 0 39 0;
#X connect 39 0 43 0;
#X connect 40 0 38 0;
#X connect 41 0 40 0;
#X connect 42 0 41 0;
#X connect 45 0 44 0;
#X connect 46 0 44 0;
#X connect 47 0 48 0;
#X connect 48 0 49 0;
#X connect 49 0 1 0;
#X connect 49 0 52 0;
#X connect 50 0 51 0;
#X connect 51 0 47 0;
#X connect 53 0 46 0;
